# xmcd
#
# Track frame offsets:
# 150
# 10534
# 22897
# 38967
# 58221
# 78687
# 93108
# 107586
# 129469
# 149768
# 168486
# 189094
# 198078
# 220114
# 238947
# 254877
# 277016
# 301428
# 320983
# 350492
#
# Disc length: 4725 seconds
#
#
# Revision: 0
# Processed by: cddbd v1.5.1PL2 Copyright (c) Steve Scherf et al.
# Submitted via: FreeRIP 2.52 
#
DISCID=2a127314
DTITLE=Homecoming friends - Canadian Homecoming
DYEAR=2006
DGENRE=Gospel
TTITLE0=Goodby, world, goodby
TTITLE1=My journey to the sky
TTITLE2=Something within
TTITLE3=Holy highway
TTITLE4=You raise me up
TTITLE5=Little is much when God is in it
TTITLE6=Gettin' ready to leave this world
TTITLE7=come out of the wilderness
TTITLE8=I've come to far
TTITLE9=I can only imagine
TTITLE10=It is well with my soul
TTITLE11=When morning sweeps the eastern sky
TTITLE12=More then ever
TTITLE13=He will carry you
TTITLE14=Through it all
TTITLE15=Then came the morning
TTITLE16=He is holy
TTITLE17=When all of God's singers get home
TTITLE18=Because he lives
TTITLE19=Data
EXTD=
EXTT0=
EXTT1=
EXTT2=
EXTT3=
EXTT4=
EXTT5=
EXTT6=
EXTT7=
EXTT8=
EXTT9=
EXTT10=
EXTT11=
EXTT12=
EXTT13=
EXTT14=
EXTT15=
EXTT16=
EXTT17=
EXTT18=
EXTT19=
PLAYORDER=
